<?xml version="1.0" encoding="UTF-8" standalone="no"?>
<svg
   xmlns:dc="http://purl.org/dc/elements/1.1/"
   xmlns:cc="http://creativecommons.org/ns#"
   xmlns:rdf="http://www.w3.org/1999/02/22-rdf-syntax-ns#"
   xmlns:svg="http://www.w3.org/2000/svg"
   xmlns="http://www.w3.org/2000/svg"
   version="1.1"
   viewBox="0 0 44 44"
   enable-background="new 0 0 44 44"
   id="svg4">
  <metadata
     id="metadata10">
    <rdf:RDF>
      <cc:Work
         rdf:about="">
        <dc:format>image/svg+xml</dc:format>
        <dc:type
           rdf:resource="http://purl.org/dc/dcmitype/StillImage" />
        <dc:title></dc:title>
      </cc:Work>
    </rdf:RDF>
  </metadata>
  <defs
     id="defs8">
    <filter
       height="1.12"
       y="-0.06"
       width="1.12"
       x="-0.06"
       id="filter4558"
       style="color-interpolation-filters:sRGB">
      <feGaussianBlur
         id="feGaussianBlur4560"
         stdDeviation="0.9881356" />
    </filter>
  </defs>
  <path
     d="M 22,2.237288 C 11.040677,2.237288 2.237288,11.040678 2.237288,22 2.237288,32.959322 11.040677,41.762712 22,41.762712 32.959322,41.762712 41.762712,32.959322 41.762712,22 41.762712,11.040678 32.959322,2.237288 22,2.237288 Z m 11.408474,13.564407 v 0 L 19.035593,30.713559 c -0.179661,0.179661 -0.359322,0.269492 -0.628813,0.269492 -0.269492,0 -0.538983,-0.08983 -0.628814,-0.269492 l -7.006781,-7.545762 -0.179661,-0.179661 c -0.179661,-0.179661 -0.269491,-0.449153 -0.269491,-0.628814 0,-0.179661 0.08983,-0.449153 0.269491,-0.628814 l 1.257628,-1.257627 c 0.359322,-0.359322 0.898306,-0.359322 1.257628,0 l 0.08983,0.08983 4.940678,5.3 c 0.179661,0.179661 0.449153,0.179661 0.628814,0 l 12.037287,-12.48644 h 0.08983 c 0.359322,-0.359322 0.898305,-0.359322 1.257627,0 l 1.257628,1.257627 c 0.359322,0.269492 0.359322,0.808475 0,1.167797 z"
     id="path2-3"
     style="fill:#666666;stroke-width:0.89830506;filter:url(#filter4558)" />
  <path
     d="M 22,2.2372881 C 11.040678,2.2372881 2.2372881,11.040678 2.2372881,22 2.2372881,32.959322 11.040678,41.762712 22,41.762712 32.959322,41.762712 41.762712,32.959322 41.762712,22 41.762712,11.040678 32.959322,2.2372881 22,2.2372881 Z M 33.408475,15.801695 v 0 L 19.035593,30.713559 c -0.179661,0.179661 -0.359322,0.269492 -0.628813,0.269492 -0.269492,0 -0.538983,-0.08983 -0.628814,-0.269492 l -7.00678,-7.545762 -0.179661,-0.179661 c -0.179661,-0.179661 -0.269491,-0.449153 -0.269491,-0.628814 0,-0.179661 0.08983,-0.449153 0.269491,-0.628814 l 1.257628,-1.257627 c 0.359322,-0.359322 0.898305,-0.359322 1.257627,0 l 0.08983,0.08983 4.940678,5.3 c 0.179661,0.179661 0.449153,0.179661 0.628814,0 L 30.80339,13.376271 h 0.08983 c 0.359322,-0.359322 0.898305,-0.359322 1.257627,0 l 1.257628,1.257627 c 0.359322,0.269492 0.359322,0.808475 0,1.167797 z"
     id="path2"
     style="fill:#ffffff;stroke-width:0.89830506" />
</svg>
